<?xml version="1.0" standalone="no"?>
<!DOCTYPE svg PUBLIC "-//W3C//DTD SVG 20010904//EN"
 "http://www.w3.org/TR/2001/REC-SVG-20010904/DTD/svg10.dtd">
<svg version="1.0" xmlns="http://www.w3.org/2000/svg"
 width="1280.000000pt" height="649.000000pt" viewBox="0 0 1280.000000 649.000000"
 preserveAspectRatio="xMidYMid meet">
<metadata>
Created by potrace 1.15, written by Peter Selinger 2001-2017
</metadata>
<g transform="translate(0.000000,649.000000) scale(0.100000,-0.100000)"
fill="#000000" stroke="none">
<path d="M1880 6463 c0 -38 -15 -45 -45 -21 -27 21 -28 21 -21 3 21 -51 20
-55 -15 -55 l-34 -1 28 -17 c15 -9 27 -19 27 -22 0 -3 -12 -13 -27 -22 l-28
-17 37 -1 c36 0 37 -1 28 -26 -14 -36 -13 -37 12 -20 12 9 25 16 29 16 14 0
19 -50 8 -72 -7 -13 -17 -32 -22 -43 -6 -11 -190 -318 -408 -682 l-398 -663
44 -79 c24 -43 60 -110 79 -149 l35 -70 -29 -12 c-23 -9 -30 -19 -30 -39 1
-22 18 -38 110 -100 61 -41 108 -76 106 -78 -1 -2 -78 1 -171 7 -92 6 -168 10
-170 8 -1 -2 16 -76 38 -165 l39 -162 98 -32 c91 -30 99 -35 104 -62 7 -36 8
-87 1 -87 -2 0 -86 9 -186 21 -99 11 -189 19 -198 17 -16 -3 -12 -22 42 -174
l61 -172 100 -27 c141 -39 132 -31 128 -115 l-4 -73 -136 7 c-76 3 -170 9
-209 12 l-73 6 79 -163 79 -164 102 -59 102 -59 -7 -111 c-4 -61 -8 -111 -8
-112 -1 -1 -94 11 -207 26 -113 15 -207 26 -209 24 -2 -2 28 -70 67 -151 l71
-148 153 -61 c150 -61 153 -62 156 -94 l3 -32 -70 7 c-43 4 -71 3 -71 -2 0 -6
11 -56 25 -113 14 -56 23 -105 20 -109 -4 -3 -110 -7 -236 -9 -126 -2 -229 -6
-229 -10 0 -3 34 -58 77 -122 l76 -116 161 -55 161 -55 3 -85 3 -84 -48 3 -49
4 14 -115 c13 -102 13 -117 -1 -138 -17 -26 19 -14 -687 -219 -173 -50 -326
-95 -340 -99 -22 -8 10 -26 238 -137 l263 -128 -6 -136 c-7 -160 -11 -180 -30
-180 -13 0 -15 -24 -15 -150 l0 -150 5925 0 5925 0 0 150 c0 85 -4 150 -9 150
-14 0 -19 39 -26 185 l-7 131 264 128 c228 111 260 129 238 137 -14 4 -149 44
-300 88 -151 43 -378 109 -505 146 -126 37 -233 70 -236 74 -4 3 1 64 10 134
l17 129 -48 -4 -48 -3 0 75 c0 41 4 80 8 86 4 6 77 36 163 65 l156 53 76 116
c43 64 77 119 77 122 0 4 -103 8 -229 10 -126 2 -232 6 -236 9 -3 4 6 53 20
109 14 57 25 107 25 113 0 5 -28 6 -71 2 l-70 -7 3 32 c3 32 6 33 156 94 l153
61 71 148 c39 81 69 149 67 151 -2 2 -96 -9 -209 -24 -113 -15 -206 -27 -206
-26 -1 1 -5 51 -9 112 l-7 111 102 59 102 59 79 164 79 163 -73 -6 c-39 -3
-133 -9 -209 -12 l-136 -7 -4 73 c-4 84 -13 76 128 115 l100 27 61 172 c54
152 58 171 42 174 -9 2 -99 -6 -198 -17 -100 -12 -184 -21 -186 -21 -7 0 -6
51 1 87 5 27 13 32 104 62 l98 32 39 162 c22 89 39 163 38 165 -2 2 -78 -2
-170 -8 -93 -6 -170 -9 -171 -7 -2 2 46 37 106 78 92 62 110 78 110 100 0 20
-7 30 -30 39 l-30 13 75 143 c41 78 75 147 75 152 0 6 -179 311 -398 678 -219
368 -406 684 -415 703 -15 31 -14 81 2 81 4 0 17 -7 29 -16 25 -17 26 -15 12
20 -9 23 -7 25 28 28 l37 3 -31 19 -32 19 27 24 26 24 -32 -4 c-36 -4 -38 -1
-23 38 11 28 3 27 -32 -3 -16 -14 -18 -12 -24 16 -8 40 -20 41 -28 1 l-6 -31
-32 23 c-29 21 -31 21 -24 3 21 -50 20 -54 -15 -54 l-34 -1 28 -17 c15 -9 27
-19 27 -22 0 -3 -12 -13 -27 -22 l-28 -17 37 -1 c36 0 37 -1 28 -26 -14 -36
-13 -38 15 -20 13 9 26 16 29 16 11 0 16 -54 5 -66 -11 -14 -14 -54 -17 -271
l-2 -112 -55 -31 c-30 -17 -55 -34 -55 -36 0 -3 14 -17 31 -32 l31 -26 -4 -85
c-4 -71 -1 -95 16 -135 l20 -49 -22 -15 c-19 -13 -22 -23 -22 -91 l0 -76 -228
-228 -228 -228 -135 11 c-74 7 -135 13 -137 15 -2 2 175 301 393 665 217 365
394 664 392 666 -2 2 -184 -298 -404 -666 l-402 -670 36 -63 c19 -34 55 -102
79 -150 l45 -88 -31 -10 c-23 -9 -30 -17 -30 -37 1 -23 18 -38 110 -101 61
-41 108 -76 106 -78 -1 -2 -78 1 -171 7 -92 6 -168 10 -170 8 -1 -2 16 -76 38
-165 l39 -162 98 -33 c91 -29 99 -34 104 -61 7 -36 8 -87 1 -87 -2 0 -86 9
-186 21 -99 11 -188 19 -198 17 -16 -3 -11 -23 43 -175 l61 -171 104 -29 c57
-15 109 -32 116 -38 9 -7 11 -31 7 -79 l-4 -68 -142 6 c-77 4 -169 9 -203 12
-39 4 -63 3 -63 -4 0 -5 34 -80 76 -166 l75 -156 101 -56 100 -56 -7 -112 c-4
-61 -8 -112 -10 -114 -1 -1 -87 39 -191 91 -487 239 -949 375 -1514 444 -182
22 -700 25 -890 5 -366 -39 -736 -124 -1076 -248 l-123 -44 -76 30 c-94 37
-329 111 -461 144 -1050 263 -2131 144 -3100 -342 l-142 -71 -7 105 c-4 58 -4
108 0 112 3 4 49 31 101 62 l96 55 79 164 79 163 -73 -6 c-39 -3 -133 -9 -208
-12 l-137 -7 -4 69 c-4 48 -2 72 7 79 7 6 59 23 116 38 l104 29 61 171 c54
152 59 172 43 175 -10 2 -99 -6 -198 -17 -100 -12 -184 -21 -186 -21 -7 0 -6
51 1 87 5 27 13 32 104 61 l98 33 39 162 c22 89 39 163 38 165 -2 2 -78 -2
-170 -8 -93 -6 -170 -9 -171 -7 -2 2 45 37 106 78 92 63 109 78 110 101 0 20
-7 28 -31 37 l-31 11 78 149 78 149 -399 668 c-219 368 -401 676 -405 684 -4
8 -12 25 -18 37 -7 12 -9 36 -6 52 l6 31 31 -22 c25 -18 29 -19 24 -5 -4 9
-10 24 -13 32 -5 11 1 15 25 15 38 0 40 12 6 30 l-26 14 28 23 28 24 -32 -4
c-36 -4 -38 -1 -23 37 12 31 4 33 -26 5 l-22 -20 -10 30 c-12 34 -22 40 -22
14z m9451 -968 c210 -352 386 -646 391 -653 6 -7 9 -14 7 -16 -2 -2 -64 -9
-138 -16 l-135 -11 -228 228 -228 228 0 76 c0 68 -3 78 -22 91 -22 14 -22 15
-3 59 14 34 18 65 16 135 -2 91 -2 91 28 117 17 14 31 28 31 31 0 2 -25 19
-55 36 l-55 31 0 97 c0 53 -3 129 -5 167 -4 52 -3 66 5 55 6 -8 182 -303 391
-655z m-9468 492 l-6 -157 -54 -31 c-29 -17 -53 -33 -53 -35 0 -3 14 -17 31
-31 30 -26 30 -26 28 -117 -2 -70 2 -101 16 -135 19 -44 19 -45 -3 -59 -19
-13 -22 -23 -22 -91 l0 -76 -228 -228 -228 -228 -135 11 c-74 7 -136 13 -137
15 -2 2 175 301 393 665 218 364 398 660 400 658 2 -2 1 -74 -2 -161z m472
-519 c211 -354 382 -644 382 -645 -1 0 -62 -6 -136 -13 l-135 -11 -228 228
-228 228 0 76 c0 68 -3 78 -22 91 l-22 15 20 49 c17 40 20 64 16 135 l-4 85
31 26 c17 15 31 29 31 32 0 2 -25 19 -55 36 l-55 31 0 107 c0 59 -3 132 -6
162 -5 53 -4 54 12 33 9 -12 188 -312 399 -665z m-1635 -4876 c0 -9 -16 -53
-36 -97 l-35 -80 6 75 c9 108 13 120 41 120 16 0 24 -6 24 -18z m11510 -114
c0 -113 -8 -178 -21 -178 -5 0 -9 29 -9 63 0 97 12 217 21 217 5 0 9 -46 9
-102z"/>
</g>
</svg>
